<svg viewBox="0 0 1024 1024" width="1024" height="1024" xmlns="http://www.w3.org/2000/svg"><defs>
    <radialGradient id="topLight" cx="32%" cy="16%" r="95%">
      <stop offset="0%" stop-color="#1C1C22"></stop><stop offset="62%" stop-color="#0A0A0B"></stop><stop offset="100%" stop-color="#050506"></stop>
    </radialGradient>
    <radialGradient id="ambient" cx="50%" cy="50%" r="50%">
      <stop offset="0%" stop-color="#3B82F6" stop-opacity="0.22"></stop><stop offset="60%" stop-color="#3B82F6" stop-opacity="0.05"></stop><stop offset="100%" stop-color="#3B82F6" stop-opacity="0"></stop>
    </radialGradient>
    <radialGradient id="runnerGlow" cx="50%" cy="50%" r="50%">
      <stop offset="0%" stop-color="#3B82F6" stop-opacity="0.55"></stop><stop offset="55%" stop-color="#3B82F6" stop-opacity="0.16"></stop><stop offset="100%" stop-color="#3B82F6" stop-opacity="0"></stop>
    </radialGradient>
    <radialGradient id="runnerCore" cx="38%" cy="32%" r="72%">
      <stop offset="0%" stop-color="#93C5FD"></stop><stop offset="55%" stop-color="#3B82F6"></stop><stop offset="100%" stop-color="#1D4ED8"></stop>
    </radialGradient>
  </defs><rect width="1024" height="1024" fill="#0A0A0B"></rect><rect width="1024" height="1024" fill="url(#topLight)"></rect><circle cx="512" cy="512" r="390" fill="url(#ambient)"></circle><path d="M 512.0 212.0 A 300 300 0 0 1 607.8 227.7" fill="none" stroke="#93C5FD" stroke-opacity="0.620" stroke-width="14" stroke-linecap="round" stroke-dasharray="18 16"></path><path d="M 607.8 227.7 A 300 300 0 0 1 693.6 273.2" fill="none" stroke="#93C5FD" stroke-opacity="0.483" stroke-width="14" stroke-linecap="round" stroke-dasharray="18 16"></path><path d="M 693.6 273.2 A 300 300 0 0 1 760.3 343.6" fill="none" stroke="#93C5FD" stroke-opacity="0.345" stroke-width="14" stroke-linecap="round" stroke-dasharray="18 16"></path><path d="M 760.3 343.6 A 300 300 0 0 1 801.1 431.8" fill="none" stroke="#93C5FD" stroke-opacity="0.208" stroke-width="14" stroke-linecap="round" stroke-dasharray="18 16"></path><circle cx="512.0" cy="212.0" r="40" fill="#FFFFFF"></circle><circle cx="512.0" cy="212.0" r="31.0" fill="#3B82F6"></circle><path d="M 771.8 662.0 A 300 300 0 0 1 710.3 737.1" fill="none" stroke="#93C5FD" stroke-opacity="0.620" stroke-width="14" stroke-linecap="round" stroke-dasharray="18 16"></path><path d="M 710.3 737.1 A 300 300 0 0 1 628.1 788.6" fill="none" stroke="#93C5FD" stroke-opacity="0.483" stroke-width="14" stroke-linecap="round" stroke-dasharray="18 16"></path><path d="M 628.1 788.6 A 300 300 0 0 1 533.6 811.2" fill="none" stroke="#93C5FD" stroke-opacity="0.345" stroke-width="14" stroke-linecap="round" stroke-dasharray="18 16"></path><path d="M 533.6 811.2 A 300 300 0 0 1 437.0 802.5" fill="none" stroke="#93C5FD" stroke-opacity="0.208" stroke-width="14" stroke-linecap="round" stroke-dasharray="18 16"></path><circle cx="771.8" cy="662.0" r="40" fill="#FFFFFF"></circle><circle cx="771.8" cy="662.0" r="31.0" fill="#3B82F6"></circle><path d="M 252.2 662.0 A 300 300 0 0 1 217.9 571.2" fill="none" stroke="#93C5FD" stroke-opacity="0.620" stroke-width="14" stroke-linecap="round" stroke-dasharray="18 16"></path><path d="M 217.9 571.2 A 300 300 0 0 1 214.4 474.2" fill="none" stroke="#93C5FD" stroke-opacity="0.483" stroke-width="14" stroke-linecap="round" stroke-dasharray="18 16"></path><path d="M 214.4 474.2 A 300 300 0 0 1 242.0 381.1" fill="none" stroke="#93C5FD" stroke-opacity="0.345" stroke-width="14" stroke-linecap="round" stroke-dasharray="18 16"></path><path d="M 242.0 381.1 A 300 300 0 0 1 298.0 301.8" fill="none" stroke="#93C5FD" stroke-opacity="0.208" stroke-width="14" stroke-linecap="round" stroke-dasharray="18 16"></path><circle cx="252.2" cy="662.0" r="40" fill="#FFFFFF"></circle><circle cx="252.2" cy="662.0" r="31.0" fill="#3B82F6"></circle><circle cx="512" cy="512" r="136" fill="url(#runnerGlow)"></circle><circle cx="512" cy="512" r="142" fill="none" stroke="#3B82F6" stroke-opacity="0.14" stroke-width="4"></circle><circle cx="512" cy="512" r="108" fill="none" stroke="#3B82F6" stroke-opacity="0.30" stroke-width="4"></circle><circle cx="512" cy="512" r="64" fill="url(#runnerCore)"></circle><circle cx="512" cy="512" r="64" fill="none" stroke="#FFFFFF" stroke-opacity="0.22" stroke-width="3"></circle></svg>